<svg version="1.1" xmlns="http://www.w3.org/2000/svg" viewBox="-22.58904772065324 -6.922705594505882 44.34956210436553 23.626826577420974" fill="none" stroke="black" stroke-width="0.6%" vector-effect="non-scaling-stroke">
    <path d="M 19.30344 -2.44317 A 37.90047 11.81923 261.08527 0 1 12.41971 12.71462 A 37.90047 11.81923 261.08527 0 1 8.95764 11.75825" />
    <path d="M 19.30344 -2.44317 C 19.36 -3.04 18.01 -3.95 18.24229 -3.70471 C 19.36 -3.04 18.01 -3.95 18.26886 -3.64543 A 42.64317 13.29824 261.08527 0 1 12.11721 4.48403 A 42.64317 13.29824 261.08527 0 1 11.02543 4.51193" />
    <path d="M 2.5349 5.84375 A 73.60727 22.95437 81.08527 0 0 5.78485 9.37813" />
    <path d="M 7.30696 10.65464 A 73.60727 22.95437 81.08527 0 0 8.95764 11.75825" />
    <path d="M 15.28705 7.88762 L 15.46994 8.57972 L 14.8603 9.46983 L -0.95824 11.95112" />
    <path d="M -4.94539 15.4385 A 37.90047 11.81923 81.08527 0 0 1.93834 0.28071 C 1.99 -0.32 0.65 -1.22 0.87719 -0.98083 L 0.1732 -0.87041 L -0.53079 -0.75998 C 0.59 -0.09 -0.76 -1 -0.50422 -0.7007 A 42.64317 13.29824 261.08527 0 1 -6.65587 7.42876 A 42.64317 13.29824 261.08527 0 1 -7.84647 7.44559" />
    <path d="M -5.96138 7.25781 A 42.64317 13.29824 261.08527 0 1 -6.33967 7.23581" />
    <path d="M 13.82769 12.49377 A 37.90047 11.81923 81.08527 0 0 20.71142 -2.66402 L 20.00743 -2.55359 C 20.06 -3.15 18.71 -4.06 18.94628 -3.81514 L 18.24229 -3.70471" />
    <path d="M 12.8117 4.31308 A 42.64317 13.29824 261.08527 0 1 12.43341 4.29108" />
    <path d="M -10.74837 6.30224 L -10.80471 6.31108 L -10.80923 5.62773 L -11.49884 4.8579 L -11.49433 5.54125 L -10.80471 6.31108" />
    <path d="M -3.52168 3.60661 L -11.49884 4.8579" />
    <path d="M -12.25443 4.11539 L -11.6019 5.45951 L -11.51812 4.91523 L -12.17065 3.57111 L -12.25443 4.11539 Z" />
    <path d="M -11.49498 5.44274 L -11.6019 5.45951" />
    <path d="M -2.69988 2.08553 L -12.17065 3.57111" />
    <path d="M -2.63732 1.95781 L -12.22523 3.46176 L -12.89432 2.24517 L -12.95711 2.83012 L -12.28802 4.04671 L -12.22523 3.46176" />
    <path d="M -12.24277 4.03961 L -12.28802 4.04671" />
    <path d="M -1.95088 0.52859 L -12.89432 2.24517" />
    <path d="M -1.98633 0.42681 L -12.95019 2.14659 L -13.63103 1.06624 L -13.67239 1.68767 L -12.99154 2.76802 L -12.95019 2.14659" />
    <path d="M -12.94974 2.76146 L -12.99154 2.76802" />
    <path d="M 7.95801 -2.3202 L -13.63103 1.06624" />
    <path d="M 7.89836 -2.31084 L 7.90126 -2.4073 L -13.68778 0.97914 L -14.37552 0.04276 L -14.39514 0.69622 L -13.7074 1.6326 L -13.68778 0.97914" />
    <path d="M -13.66831 1.62646 L -13.7074 1.6326" />
    <path d="M 7.21353 -3.34368 L -14.37552 0.04276" />
    <path d="M 7.15657 -3.33474 L 7.1563 -3.41868 L -14.43275 -0.03224 L -15.12244 -0.81793 L -15.12019 -0.13713 L -14.43049 0.64857 L -14.43275 -0.03224" />
    <path d="M -14.39353 0.64277 L -14.43049 0.64857" />
    <path d="M 6.4666 -4.20437 L -15.12244 -0.81793" />
    <path d="M 6.41174 -4.19577 L 6.4093 -4.26673 L -15.17974 -0.88029 L -15.86646 -1.50968 L -15.84234 -0.8064 L -15.15563 -0.17701 L -15.17974 -0.88029" />
    <path d="M -15.12034 -0.18255 L -15.15563 -0.17701" />
    <path d="M 5.72259 -4.89612 L -15.86646 -1.50968" />
    <path d="M 5.66929 -4.88776 L 5.66563 -4.9454 L 4.98681 -5.41397 L -16.60223 -2.02753 L -16.55643 -1.30682 L -15.87761 -0.83824 L -15.92342 -1.55896 L -16.60223 -2.02753" />
    <path d="M 5.66563 -4.9454 L -15.92342 -1.55896" />
    <path d="M -15.84362 -0.84358 L -15.87761 -0.83824" />
    <path d="M 4.93463 -5.40579 L 4.9306 -5.44981 L 4.26454 -5.75421 L -17.32451 -2.36777 L -17.25735 -1.63478 L -16.59128 -1.33038 L -16.65844 -2.06337 L -17.32451 -2.36777" />
    <path d="M 4.9306 -5.44981 L -16.65844 -2.06337" />
    <path d="M -16.55826 -1.33556 L -16.59128 -1.33038" />
    <path d="M 4.21308 -5.74614 L 4.20948 -5.77636 L 3.56095 -5.91441 L -18.0281 -2.52797 L -17.94006 -1.78796 L -17.29153 -1.6499 L -17.37956 -2.38992 L -18.0281 -2.52797" />
    <path d="M 4.20948 -5.77636 L -17.37956 -2.38992" />
    <path d="M -17.2592 -1.65497 L -17.29153 -1.6499" />
    <path d="M 3.50982 -5.90639 L 3.50743 -5.9227 L 2.88107 -5.89342 L -18.70797 -2.50698 L -18.59969 -1.76524 L -17.97333 -1.79452 L -18.08161 -2.53626 L -18.70797 -2.50698" />
    <path d="M 3.50743 -5.9227 L -18.08161 -2.53626" />
    <path d="M -17.94144 -1.79952 L -17.97333 -1.79452" />
    <path d="M 2.8299 -5.88539 L 2.82949 -5.8878 L -18.75956 -2.50136 L -19.35926 -2.30495 L -19.23151 -1.56679 L -18.6318 -1.7632 L -18.75956 -2.50136" />
    <path d="M -18.60012 -1.76817 L -18.6318 -1.7632" />
    <path d="M -18.64485 -1.65881 L -19.23151 -1.56679" />
    <path d="M -19.35728 -2.2935 L -19.40855 -2.28546 L -19.9773 -1.92332 L -19.83099 -1.19403 L -19.26223 -1.55617 L -19.40855 -2.28546" />
    <path d="M -18.67558 -1.64819 L -19.26223 -1.55617" />
    <path d="M -18.6767 -1.65381 L -18.67558 -1.64819 L -19.24433 -1.28605 L -19.83099 -1.19403" />
    <path d="M -19.97226 -1.8982 L -20.02394 -1.8901 L -20.55767 -1.36483 L -20.39385 -0.64963 L -19.86011 -1.1749 L -20.02394 -1.8901" />
    <path d="M -19.27346 -1.26692 L -19.86011 -1.1749" />
    <path d="M -19.27668 -1.28098 L -19.27346 -1.26692 L -19.80719 -0.74166 L -20.39385 -0.64963" />
    <path d="M -20.54885 -1.32634 L -20.60131 -1.31811 L -21.0962 -0.63348 L -20.91605 0.0625 L -20.42116 -0.62213 L -20.60131 -1.31811" />
    <path d="M -19.8345 -0.71415 L -20.42116 -0.62213" />
    <path d="M -19.83949 -0.73342 L -19.8345 -0.71415 L -20.32939 -0.02952 L -20.91605 0.0625" />
    <path d="M -20.79137 0.84277 L -21.39384 0.93728 L -20.94135 0.09818 L -21.13655 -0.5736 L -21.58905 0.26549 L -21.39384 0.93728" />
    <path d="M -20.35327 0.00594 L -20.94135 0.09818" />
    <path d="M -20.36698 0.02896 L -20.6829 0.61479 A 24.46338 7.62888 81.08527 0 0 -20.85097 0.97457 L -20.85097 1.87885 A 73.60727 22.95437 81.08527 0 0 -9.81544 14.70298" />
    <path d="M -0.19913 10.31677 L 15.28705 7.88762" />
    <path d="M -0.53018 11.08949 L 15.46994 8.57972" />
    <path d="M -11.49849 4.91215 L -11.51812 4.91523" />
    <path d="M -19.83651 -0.73706 A 24.46338 7.62888 81.08527 0 0 -19.83949 -0.73342" />
    <path d="M -20.3322 -0.02908 A 24.46338 7.62888 81.08527 0 0 -20.36698 0.02896" />
    <path d="M 0.53036 0.50156 A 37.90047 11.81923 261.08527 0 1 -6.35337 15.65935 L -4.94539 15.4385" />
    <path d="M -6.35337 15.65935 A 37.90047 11.81923 261.08527 0 1 -9.81544 14.70298" />
    <path d="M 1.23435 0.39114 L 0.53036 0.50156 C 0.59 -0.09 -0.76 -1 -0.53079 -0.75998" />
    <path d="M 1.23435 0.39114 C 1.29 -0.21 -0.06 -1.11 0.1732 -0.87041" />
    <path d="M 20.71142 -2.66402 C 20.77 -3.26 19.42 -4.17 19.65027 -3.92556 L 18.94628 -3.81514" />
    <path d="M -4.24956 4.59878 L -10.80923 5.62773" />
    <path d="M -18.27331 -1.7805 L -18.64485 -1.65881" />
    <path d="M 8.04281 -2.18564 L 7.95801 -2.3202" />
    <path d="M 7.90126 -2.4073 L 7.21353 -3.34368" />
    <path d="M 7.1563 -3.41868 L 6.4666 -4.20437" />
    <path d="M 6.4093 -4.26673 L 5.72259 -4.89612" />
    <path d="M -21.08288 -0.58202 L -21.13655 -0.5736" />
    <path d="M -9.23539 7.23227 L -9.33027 7.24715 L -9.40416 6.51134 L -10.06513 6.25992 L -9.99124 6.99573 L -9.33027 7.24715" />
    <path d="M -5.68755 5.92836 L -9.40416 6.51134" />
    <path d="M -5.10328 5.48161 L -10.06513 6.25992" />
    <path d="M 17.74446 -2.03302 L 1.92224 0.44884" />
    <path d="M -1.02862 0.91171 L -1.7766 1.02904 L -1.39994 -0.04832 L -1.61661 -0.67048 L -1.99327 0.40688 L -1.7766 1.02904" />
    <path d="M 18.10603 -3.10801 L 1.5068 -0.50426" />
    <path d="M -0.66705 -0.16328 L -1.39994 -0.04832" />
    <path d="M 19.97243 -4.05692 L -1.61661 -0.67048" />
    <path d="M 20.13675 -3.58508 L 19.97243 -4.05692" />
    <path d="M 16.80856 0.16656 L 1.68088 2.53948" />
    <path d="M -1.96452 3.11129 L -2.7372 3.2325 L -2.30034 2.34062 L -2.50049 1.67847 L -2.93735 2.57034 L -2.7372 3.2325" />
    <path d="M 17.22466 -0.72205 L 1.78737 1.69943" />
    <path d="M -1.54842 2.22268 L -2.30034 2.34062" />
    <path d="M -2.40875 1.66408 L -2.50049 1.67847" />
    <path d="M 14.63205 3.2018 L 1.22539 5.30476" />
    <path d="M -4.14103 6.14653 L -5.03897 6.28738 L -4.4977 5.79548 L -4.658 5.07695 L -5.19928 5.56885 L -5.03897 6.28738" />
    <path d="M 15.11258 2.71943 L 1.30606 4.88511" />
    <path d="M -3.6605 5.66416 L -4.4977 5.79548" />
    <path d="M -4.57357 5.06371 L -4.658 5.07695" />
    <path d="M 16.29599 1.1005 L 1.55543 3.41269" />
    <path d="M -2.47709 4.04523 L -3.26743 4.1692 L -2.80235 3.37413 L -2.99335 2.69485 L -3.45843 3.48993 L -3.26743 4.1692" />
    <path d="M 16.73574 0.3094 L 1.6626 2.67376" />
    <path d="M -2.03734 3.25413 L -2.80235 3.37413" />
    <path d="M -2.90395 2.68083 L -2.99335 2.69485" />
    <path d="M 14.07144 3.65707 L 1.14845 5.68416" />
    <path d="M -4.70164 6.6018 L -5.68401 6.7559 L -5.1204 6.36834 L -5.2695 5.64089 L -5.8331 6.02845 L -5.68401 6.7559" />
    <path d="M 14.53968 3.28447 L 1.21141 5.37513" />
    <path d="M -4.2334 6.2292 L -5.1204 6.36834" />
    <path d="M -5.18612 5.62781 L -5.2695 5.64089" />
    <path d="M -8.48799 7.39349 L -8.58238 7.40829 L -8.66957 6.66846 L -9.31892 6.52352 L -9.23173 7.26335 L -8.58238 7.40829" />
    <path d="M -6.36136 6.3064 L -8.66957 6.66846" />
    <path d="M -5.73567 5.96145 L -9.31892 6.52352" />
    <path d="M 13.2291 4.14775 L 1.06936 6.05512" />
    <path d="M -5.54398 7.09248 L -7.04465 7.32788 L -6.4414 7.15209 L -6.5668 6.4132 L -7.17004 6.58899 L -7.04465 7.32788" />
    <path d="M 13.47215 4.02846 L 1.08762 5.97109" />
    <path d="M -5.30093 6.97319 L -6.4414 7.15209" />
    <path d="M -6.48476 6.40033 L -6.5668 6.4132" />
    <path d="M -7.71738 7.42534 L -7.85019 7.44617 L -7.95041 6.70449 L -8.58624 6.66645 L -8.48601 7.40814 L -7.85019 7.44617" />
    <path d="M -7.86874 6.69167 L -7.95041 6.70449" />
    <path d="M -6.39528 6.32278 L -8.58624 6.66645" />
    <path d="M 15.20048 2.62123 L 1.32221 4.79816" />
    <path d="M -3.5726 5.56596 L -4.42001 5.69888 L -3.90264 5.10409 L -4.07368 4.39659 L -4.59105 4.99139 L -4.42001 5.69888" />
    <path d="M 15.67518 2.03313 L 1.41641 4.26974" />
    <path d="M -3.09791 4.97786 L -3.90264 5.10409" />
    <path d="M -3.98791 4.38313 L -4.07368 4.39659" />
    <path d="M -9.99736 6.93479 L -10.06113 6.94479 L -10.08771 6.23928 L -10.77378 5.62792 L -10.74719 6.33343 L -10.06113 6.94479" />
    <path d="M -5.07111 5.45238 L -10.08771 6.23928" />
    <path d="M -4.25536 4.60545 L -10.77378 5.62792" />
    <path d="M 17.29228 -0.87903 L 1.8049 1.55031" />
    <path d="M -1.48081 2.0657 L -2.23977 2.18475 L -1.83242 1.19869 L -2.04113 0.5556 L -2.44848 1.54165 L -2.23977 2.18475" />
    <path d="M 17.68213 -1.86234 L 1.90614 0.61227" />
    <path d="M -1.09095 1.08239 L -1.83242 1.19869" />
    <path d="M -1.94664 0.54077 L -2.04113 0.5556" />
    <path d="M 15.75817 1.91972 L 1.43402 4.1666" />
    <path d="M -3.01491 4.86445 L -3.82892 4.99214 L -3.33697 4.29618 L -3.51826 3.60178 L -4.0102 4.29774 L -3.82892 4.99214" />
    <path d="M 16.21804 1.2288 L 1.53711 3.53164" />
    <path d="M -2.55504 4.17353 L -3.33697 4.29618" />
    <path d="M -3.43084 3.58807 L -3.51826 3.60178" />
    <path d="M 13.56383 3.9789 L 1.09547 5.93467" />
    <path d="M -5.20925 6.92363 L -6.35322 7.10307 L -5.76894 6.82098 L -5.90638 6.08674 L -6.49066 6.36882 L -6.35322 7.10307" />
    <path d="M 13.97615 3.72378 L 1.13728 5.73768" />
    <path d="M -4.79693 6.66851 L -5.76894 6.82098" />
    <path d="M -5.82381 6.07378 L -5.90638 6.08674" />
    <path d="M 13.16509 4.1763 L 1.06516 6.07429" />
    <path d="M -5.60799 7.12103 L -7.13583 7.36069 L -7.24881 6.61932 L -7.86925 6.68829 L -7.75627 7.42967 L -7.13583 7.36069" />
    <path d="M -7.16707 6.60649 L -7.24881 6.61932" />
    <path d="M -7.09295 6.56652 L -7.86925 6.68829" />
    <path d="M 20.00743 -2.55359 L 19.30344 -2.44317" />
    <path d="M 1.93834 0.28071 L 1.23435 0.39114" />
    <path d="M 12.41971 12.71462 L 13.82769 12.49377" />
</svg>